<?xml version="1.0" standalone="no"?>
<!DOCTYPE svg PUBLIC "-//W3C//DTD SVG 20010904//EN"
 "http://www.w3.org/TR/2001/REC-SVG-20010904/DTD/svg10.dtd">
<svg version="1.0" xmlns="http://www.w3.org/2000/svg"
 width="181.000000pt" height="200.000000pt" viewBox="0 0 181.000000 200.000000"
 preserveAspectRatio="xMidYMid meet">

<g transform="translate(0.000000,200.000000) scale(0.100000,-0.100000)"
fill="#000000" stroke="none">
<path d="M635 1823 c-83 -17 -196 -60 -259 -97 l-46 -27 23 -34 c12 -19 26
-35 30 -35 5 0 28 11 51 25 113 66 268 100 425 92 130 -6 200 -24 316 -82 201
-99 346 -270 415 -490 28 -90 38 -268 20 -368 -45 -258 -236 -501 -470 -597
-30 -13 -59 -27 -64 -31 -14 -12 13 -79 33 -79 9 0 55 19 101 43 221 110 382
298 462 537 31 91 32 102 33 260 0 192 -15 260 -89 408 -128 255 -366 431
-650 481 -83 15 -248 12 -331 -6z"/>
<path d="M632 1650 c-123 -33 -225 -93 -322 -190 -94 -94 -139 -163 -175 -267
-68 -194 -55 -383 38 -573 33 -68 59 -103 132 -176 80 -82 101 -97 195 -142
124 -59 192 -75 320 -74 164 0 311 51 444 153 l67 52 -32 33 -32 33 -54 -44
c-167 -136 -414 -175 -623 -98 -111 41 -217 123 -285 218 -271 379 -69 899
387 996 l49 11 -3 41 c-4 51 -10 52 -106 27z"/>
<path d="M745 1499 c-105 -13 -246 -78 -299 -138 -19 -21 -19 -22 9 -51 l28
-29 26 20 c104 80 191 111 311 111 187 -1 336 -97 417 -268 59 -124 58 -273
-4 -402 -58 -121 -206 -231 -334 -249 l-54 -8 -3 -43 -3 -42 39 0 c47 0 131
24 192 55 115 59 216 172 267 301 25 62 27 82 27 194 0 112 -2 132 -27 194
-97 246 -333 387 -592 355z"/>
<path d="M692 1301 c-262 -97 -338 -426 -142 -621 25 -26 72 -59 105 -76 54
-26 69 -29 160 -29 73 0 110 5 138 17 l39 18 -23 39 -22 39 -40 -14 c-100 -35
-214 -8 -293 70 -114 115 -114 287 0 402 102 102 261 113 374 28 l34 -27 32
32 31 32 -30 25 c-95 78 -252 106 -363 65z"/>
</g>
</svg>
