<?xml version="1.0" standalone="no"?>
<!DOCTYPE svg PUBLIC "-//W3C//DTD SVG 20010904//EN"
 "http://www.w3.org/TR/2001/REC-SVG-20010904/DTD/svg10.dtd">
<svg version="1.0" xmlns="http://www.w3.org/2000/svg"
 width="600.000000pt" height="480.000000pt" viewBox="0 0 600.000000 480.000000"
 preserveAspectRatio="xMidYMid meet">

<g transform="translate(0.000000,480.000000) scale(0.100000,-0.100000)"
fill="#000000" stroke="none">
<path d="M945 3303 c-83 -17 -196 -60 -259 -97 l-46 -27 23 -34 c12 -19 26
-35 30 -35 5 0 28 11 51 25 113 66 268 100 425 92 130 -6 200 -24 316 -82 201
-99 346 -270 415 -490 28 -90 38 -268 20 -368 -45 -258 -236 -501 -470 -597
-30 -13 -59 -27 -64 -31 -14 -12 13 -79 33 -79 9 0 55 19 101 43 221 110 382
298 462 537 31 91 32 102 33 260 0 192 -15 260 -89 408 -128 255 -366 431
-650 481 -83 15 -248 12 -331 -6z"/>
<path d="M942 3130 c-123 -33 -225 -93 -322 -190 -94 -94 -139 -163 -175 -267
-68 -194 -55 -383 38 -573 33 -68 59 -103 132 -176 80 -82 101 -97 195 -142
124 -59 192 -75 320 -74 164 0 311 51 444 153 l67 52 -32 33 -32 33 -54 -44
c-167 -136 -414 -175 -623 -98 -111 41 -217 123 -285 218 -271 379 -69 899
387 996 l49 11 -3 41 c-4 51 -10 52 -106 27z"/>
<path d="M1055 2979 c-105 -13 -246 -78 -299 -138 -19 -21 -19 -22 9 -51 l28
-29 26 20 c104 80 191 111 311 111 187 -1 336 -97 417 -268 59 -124 58 -273
-4 -402 -58 -121 -206 -231 -334 -249 l-54 -8 -3 -43 -3 -42 39 0 c47 0 131
24 192 55 115 59 216 172 267 301 25 62 27 82 27 194 0 112 -2 132 -27 194
-97 246 -333 387 -592 355z"/>
<path d="M1002 2781 c-262 -97 -338 -426 -142 -621 25 -26 72 -59 105 -76 54
-26 69 -29 160 -29 73 0 110 5 138 17 l39 18 -23 39 -22 39 -40 -14 c-100 -35
-214 -8 -293 70 -114 115 -114 287 0 402 102 102 261 113 374 28 l34 -27 32
32 31 32 -30 25 c-95 78 -252 106 -363 65z"/>
<path d="M4832 2579 c-57 -32 -57 -32 -42 -60 10 -17 7 -19 -31 -19 l-41 0 4
-40 c2 -22 0 -40 -4 -40 -17 0 -48 -46 -48 -71 0 -14 9 -38 21 -53 19 -24 26
-26 104 -26 78 0 85 2 104 26 24 30 29 116 10 157 -12 27 -47 47 -82 48 -13 0
-2 8 31 20 54 21 59 30 39 66 l-12 22 -53 -30z m18 -229 c0 -5 -25 -10 -55
-10 -30 0 -55 5 -55 10 0 6 25 10 55 10 30 0 55 -4 55 -10z"/>
<path d="M3007 2583 c-4 -3 -7 -24 -7 -45 l0 -38 -55 0 c-60 0 -109 -19 -119
-45 -3 -9 -6 -43 -6 -74 0 -44 5 -65 21 -85 19 -24 26 -26 103 -26 73 0 85 3
104 23 20 22 22 33 22 160 l0 137 -28 0 c-16 0 -32 -3 -35 -7z m-7 -198 l0
-45 -55 0 -55 0 0 38 c0 21 3 42 7 45 3 4 28 7 55 7 l48 0 0 -45z"/>
<path d="M5190 2556 c0 -35 1 -36 36 -36 34 0 35 1 32 33 -3 28 -7 32 -35 35
-32 3 -33 2 -33 -32z"/>
<path d="M5287 2584 c-11 -11 -8 -214 3 -256 12 -42 34 -58 79 -58 29 0 31 3
31 35 0 28 -4 35 -20 35 -18 0 -20 8 -22 123 l-3 122 -30 3 c-17 2 -34 0 -38
-4z"/>
<path d="M2335 2563 c-11 -3 -30 -14 -42 -26 -21 -19 -23 -30 -23 -122 0 -93
2 -103 23 -123 21 -20 34 -22 135 -22 l112 0 0 35 0 35 -100 0 -100 0 0 75 0
75 100 0 100 0 0 40 0 40 -92 -1 c-51 -1 -102 -3 -113 -6z"/>
<path d="M3647 2564 c-4 -4 -7 -20 -7 -36 0 -24 -4 -28 -30 -28 -28 0 -30 -3
-30 -35 0 -32 2 -35 30 -35 l30 0 0 -80 0 -80 40 0 40 0 0 80 0 80 40 0 c39 0
40 1 40 35 0 34 -1 35 -39 35 -37 0 -40 2 -43 33 -3 28 -7 32 -33 35 -17 2
-34 0 -38 -4z"/>
<path d="M4433 2560 c-22 -9 -23 -14 -23 -150 l0 -140 35 0 35 0 0 55 0 55 90
0 90 0 0 35 0 35 -90 0 c-83 0 -90 1 -90 20 0 19 7 20 100 20 l100 0 0 40 0
40 -112 -1 c-62 0 -123 -4 -135 -9z"/>
<path d="M2602 2461 c2 -22 0 -41 -4 -41 -20 0 -48 -43 -48 -73 0 -58 32 -77
127 -77 76 0 83 2 102 26 31 40 30 133 -3 171 -22 25 -31 28 -101 31 l-77 4 4
-41z m128 -111 c0 -5 -25 -10 -55 -10 -30 0 -55 5 -55 10 0 6 25 10 55 10 30
0 55 -4 55 -10z"/>
<path d="M3142 2461 c2 -28 0 -41 -9 -41 -19 0 -43 -42 -43 -77 0 -57 27 -73
120 -73 66 0 83 3 100 20 25 25 34 60 27 117 -7 69 -31 87 -123 91 l-76 4 4
-41z m128 -111 c0 -6 -27 -10 -61 -10 -37 0 -58 4 -54 10 3 6 31 10 61 10 30
0 54 -4 54 -10z"/>
<path d="M3393 2490 c-44 -18 -56 -77 -23 -110 16 -16 33 -20 80 -20 88 0 73
-19 -17 -22 l-78 -3 -3 -32 -3 -33 94 0 c85 0 96 2 115 23 28 30 28 76 1 111
-11 14 -15 26 -9 26 7 0 10 13 8 33 l-3 32 -70 2 c-38 1 -80 -2 -92 -7z"/>
<path d="M3860 2487 c-37 -19 -50 -54 -50 -139 l0 -78 40 0 40 0 0 80 0 80 65
0 65 0 0 35 0 35 -67 0 c-38 0 -79 -6 -93 -13z"/>
<path d="M4050 2466 c0 -19 6 -37 13 -39 7 -4 6 -6 -5 -6 -23 -1 -58 -48 -58
-78 0 -13 11 -35 25 -48 21 -22 33 -25 103 -25 69 0 81 3 100 23 18 19 22 35
22 84 0 34 -3 69 -6 78 -11 28 -60 45 -129 45 l-65 0 0 -34z m130 -116 c0 -5
-25 -10 -56 -10 -34 0 -53 4 -49 10 3 6 28 10 56 10 27 0 49 -4 49 -10z"/>
<path d="M4985 2489 c-36 -21 -45 -41 -45 -109 0 -57 3 -70 23 -88 20 -19 35
-22 116 -22 l92 0 -3 33 -3 32 -78 3 -78 3 3 42 3 42 78 3 78 3 -3 32 -3 32
-80 2 c-45 2 -89 -2 -100 -8z"/>
<path d="M5190 2385 l0 -115 35 0 35 0 0 115 0 115 -35 0 -35 0 0 -115z"/>
</g>
</svg>
